<svg width="97" height="129" viewBox="0 0 97 129" fill="none" xmlns="http://www.w3.org/2000/svg">
<path d="M56.9546 54.5349L88.4056 11.1625C91.2849 7.19179 87.7909 1.75238 82.9825 2.71991C81.7044 2.97708 80.5629 3.68906 79.7699 4.7238L52.3153 40.544C51.5426 41.5521 50.0381 41.5939 49.2106 40.6303L18.3061 4.63986C17.461 3.65569 16.304 2.99112 15.028 2.75704C9.85661 1.80829 6.2915 7.79998 9.59245 11.8924L44.2513 54.8611C47.5597 58.9628 53.8611 58.8009 56.9546 54.5349Z" stroke="#008CCA" stroke-opacity="0.5"/>
<path d="M56.9546 87.5349L88.4056 44.1625C91.2849 40.1918 87.7909 34.7524 82.9825 35.7199C81.7044 35.9771 80.5629 36.6891 79.7699 37.7238L52.3153 73.544C51.5426 74.5521 50.0381 74.5939 49.2106 73.6303L18.3061 37.6399C17.461 36.6557 16.304 35.9911 15.028 35.757C9.85661 34.8083 6.2915 40.8 9.59245 44.8924L44.2513 87.8611C47.5597 91.9628 53.8611 91.8009 56.9546 87.5349Z" stroke="#008CCA" stroke-opacity="0.8"/>
<path d="M56.9546 120.535L88.4056 77.1625C91.2849 73.1918 87.7909 67.7524 82.9825 68.7199C81.7044 68.9771 80.5629 69.6891 79.7699 70.7238L52.3153 106.544C51.5426 107.552 50.0381 107.594 49.2106 106.63L18.3061 70.6399C17.461 69.6557 16.304 68.9911 15.028 68.757C9.85661 67.8083 6.2915 73.8 9.59245 77.8924L44.2513 120.861C47.5597 124.963 53.8611 124.801 56.9546 120.535Z" stroke="#008CCA"/>
</svg>
